<svg width="22" height="23" viewBox="0 0 22 23" fill="none" xmlns="http://www.w3.org/2000/svg">
<path d="M11 1.41498C8.99502 1.41734 7.07284 2.21486 5.65511 3.6326C4.23738 5.05033 3.43986 6.9725 3.43749 8.97748C3.43509 10.6159 3.97029 12.21 4.96099 13.515C4.96099 13.515 5.16724 13.7865 5.20093 13.8257L11 20.665L16.8018 13.8223C16.8321 13.7859 17.039 13.515 17.039 13.515L17.0397 13.5129C18.0299 12.2085 18.5648 10.6152 18.5625 8.97748C18.5601 6.9725 17.7626 5.05033 16.3449 3.6326C14.9271 2.21486 13.005 1.41734 11 1.41498ZM11 11.7275C10.4561 11.7275 9.92441 11.5662 9.47217 11.264C9.01994 10.9618 8.66746 10.5324 8.45932 10.0299C8.25118 9.52736 8.19672 8.97443 8.30283 8.44098C8.40894 7.90753 8.67085 7.41753 9.05545 7.03293C9.44004 6.64834 9.93005 6.38643 10.4635 6.28032C10.9969 6.17421 11.5499 6.22867 12.0524 6.43681C12.5549 6.64495 12.9844 6.99743 13.2865 7.44966C13.5887 7.9019 13.75 8.43358 13.75 8.97748C13.7491 9.70654 13.4591 10.4055 12.9435 10.921C12.428 11.4365 11.7291 11.7266 11 11.7275Z" fill="#DD2B2B"/>
</svg>
