<svg width="21" height="24" viewBox="0 0 21 24" fill="none" xmlns="http://www.w3.org/2000/svg">
<g clip-path="url(#clip0_2_16)">
<path d="M20.048 3.96752V11.5778C20.048 12.2858 19.7517 12.9649 19.2243 13.4655C18.6968 13.9661 17.9815 14.2474 17.2355 14.2474H4.86053C4.11461 14.2474 3.39924 13.9661 2.8718 13.4655C2.34435 12.9649 2.04803 12.2858 2.04803 11.5778V3.96752L10.7623 8.83462C10.8489 8.88309 10.9475 8.90865 11.048 8.90865C11.1485 8.90865 11.2472 8.88309 11.3338 8.83462L20.048 3.96752ZM17.2355 0.365784C17.9276 0.36568 18.5954 0.607758 19.1111 1.0457C19.6269 1.48365 19.9545 2.08672 20.0312 2.73954L11.048 7.75506L2.06491 2.73954C2.14159 2.08672 2.46915 1.48365 2.98493 1.0457C3.50071 0.607758 4.1685 0.36568 4.86053 0.365784H17.2355Z" fill="#DD2B2B"/>
</g>
<defs>
<clipPath id="clip0_2_16">
<rect width="20" height="23.2267" fill="white" transform="translate(0.0480347 0.365784)"/>
</clipPath>
</defs>
</svg>
