<svg width="17" height="17" viewBox="0 0 17 17" fill="none" xmlns="http://www.w3.org/2000/svg">
<g clip-path="url(#clip0_2_22)">
<path d="M16.671 13.7931L14.4152 16.0308C14.0822 16.3723 13.6408 16.488 13.211 16.4886C11.31 16.4316 9.51318 15.4978 8.03787 14.539C5.61625 12.7773 3.3943 10.5928 1.99977 7.95298C1.46491 6.84601 0.83734 5.43359 0.8973 4.19801C0.902646 3.73321 1.0279 3.27703 1.35525 2.97743L3.61106 0.722754C4.07949 0.324314 4.53249 0.462074 4.83225 0.926181L6.64706 4.36754C6.83807 4.77523 6.7285 5.21206 6.44351 5.50338L5.61242 6.33405C5.56111 6.40433 5.52845 6.48433 5.52762 6.57139C5.84631 7.80502 6.81179 8.94205 7.6647 9.72454C8.51759 10.507 9.43437 11.5672 10.6244 11.8182C10.7715 11.8592 10.9517 11.8736 11.0569 11.7758L12.0237 10.7925C12.357 10.5399 12.8382 10.4165 13.194 10.623H13.2109L16.4844 12.5556C16.965 12.8568 17.0151 13.4389 16.671 13.7931Z" fill="#DD2B2B"/>
</g>
<defs>
<clipPath id="clip0_2_22">
<rect width="16" height="16" fill="white" transform="translate(0.893494 0.488403)"/>
</clipPath>
</defs>
</svg>
